# File created by Blade
# Date/Time:  Wed Apr 08 17:04:14 2015
#---------------------------------------------------------
:version 1.10
:name HOM
:units
  mass 1.0
  length 1.000000
  angle deg
:documentation
     Acclaim Skeleton File
:root
   axis xyz
   order TX TY TZ RX RY RZ
   position 0.000000 0.000000 0.000000
   orientation 0 0 0
:bonedata
   begin
      id 1
      name Spine_dum
      direction 0.000000 1.000000 0.000000
      length 5.893853
      axis 0.0 0.0 0.0 xyz
   end
   begin
      id 2
      name LeftUpLeg_dum
      direction 1.000000 0.000000 0.000000
      length 3.697939
      axis 0.0 0.0 0.0 xyz
   end
   begin
      id 3
      name RightUpLeg_dum
      direction -1.000000 0.000000 0.000000
      length 3.697939
      axis 0.0 0.0 0.0 xyz
   end
   begin
      id 4
      name Spine
      direction 0.000000 1.000000 0.000000
      length 0.000000
      axis 0.0 0.0 0.0 xyz
      dof rx ry rz
   end
   begin
      id 5
      name Spine_dum1
      direction 0.000000 1.000000 0.000000
      length 16.447146
      axis 0.0 0.0 0.0 xyz
   end
   begin
      id 6
      name Spine_dum2
      direction 0.000000 1.000000 0.000000
      length 10.900383
      axis 0.0 0.0 0.0 xyz
   end
   begin
      id 7
      name Spine_dum3
      direction 0.000000 1.000000 0.000000
      length 10.900383
      axis 0.0 0.0 0.0 xyz
   end
   begin
      id 8
      name Head
      direction 0.000000 1.000000 0.000000
      length 4.527550
      axis 0.0 0.0 0.0 xyz
      dof rx ry rz
   end
   begin
      id 9
      name LeftShoulder
      direction 1.000000 0.000000 0.000000
      length 8.219464
      axis 0.0 0.0 -90.0 xyz
      dof rx ry rz
   end
   begin
      id 10
      name LeftArm
      direction 1.000000 0.000000 0.000000
      length 11.094937
      axis 0.0 0.0 -90.0 xyz
      dof rx ry rz
   end
   begin
      id 11
      name LeftForeArm
      direction 1.000000 0.000000 0.000000
      length 9.103875
      axis 0.0 0.0 -90.0 xyz
      dof ry rz rx
   end
   begin
      id 12
      name LeftHand
      direction 0.000000 0.000000 0.000000
      length 0.000000
      axis 0.0 0.0 -90.0 xyz
      dof rx ry rz
   end
   begin
      id 13
      name LeftHand_dum1
      direction 0.000000 0.000000 0.000000
      length 0.000000
      axis 0.0 0.0 -90.0 xyz
   end
   begin
      id 14
      name LeftHand_dum2
      direction 1.000000 0.000000 0.000000
      length 3.937000
      axis 0.0 0.0 -90.0 xyz
   end
   begin
      id 15
      name LeftHandThumb1
      direction 0.000000 0.000000 1.000000
      length 3.937000
      axis 0.0 0.0 -90.0 xyz
      dof rx rz ry
   end
   begin
      id 16
      name RightShoulder
      direction -1.000000 0.000000 0.000000
      length 8.219464
      axis 0.0 0.0 90.0 xyz
      dof rx ry rz
   end
   begin
      id 17
      name RightArm
      direction -1.000000 0.000000 0.000000
      length 11.094937
      axis 0.0 0.0 90.0 xyz
      dof rx ry rz
   end
   begin
      id 18
      name RightForeArm
      direction -1.000000 0.000000 0.000000
      length 9.103875
      axis 0.0 0.0 90.0 xyz
      dof ry rz rx
   end
   begin
      id 19
      name RightHand
      direction 0.000000 0.000000 0.000000
      length 0.000000
      axis 0.0 0.0 90.0 xyz
      dof rx ry rz
   end
   begin
      id 20
      name RightHand_dum1
      direction 0.000000 0.000000 0.000000
      length 0.000000
      axis 0.0 0.0 90.0 xyz
   end
   begin
      id 21
      name RightHand_dum2
      direction -1.000000 0.000000 0.000000
      length 3.937000
      axis 0.0 0.0 90.0 xyz
   end
   begin
      id 22
      name RightHandThumb1
      direction 0.000000 0.000000 1.000000
      length 3.937000
      axis 0.0 0.0 90.0 xyz
      dof rx rz ry
   end
   begin
      id 23
      name LeftUpLeg
      direction 0.000000 -1.000000 0.000000
      length 16.181467
      axis 0.0 0.0 0.0 xyz
      dof rx ry rz
   end
   begin
      id 24
      name LeftLeg
      direction 0.000000 -1.000000 0.000000
      length 16.501392
      axis 0.0 0.0 0.0 xyz
      dof rx ry rz
   end
   begin
      id 25
      name LeftFoot
      direction 0.000000 -0.258819 0.965926
      length 6.408245
      axis 15.0 0.0 0.0 xyz
      dof rx ry rz
   end
   begin
      id 26
      name LeftToeBase
      direction 0.000000 0.000000 1.000000
      length 2.952750
      axis 0.0 0.0 0.0 xyz
      dof rx ry rz
   end
   begin
      id 27
      name RightUpLeg
      direction 0.000000 -1.000000 0.000000
      length 16.181467
      axis 0.0 0.0 0.0 xyz
      dof rx ry rz
   end
   begin
      id 28
      name RightLeg
      direction 0.000000 -1.000000 0.000000
      length 16.501392
      axis 0.0 0.0 0.0 xyz
      dof rx ry rz
   end
   begin
      id 29
      name RightFoot
      direction 0.000000 -0.258819 0.965926
      length 6.408245
      axis 15.0 0.0 0.0 xyz
      dof rx ry rz
   end
   begin
      id 30
      name RightToeBase
      direction 0.000000 0.000000 1.000000
      length 2.952750
      axis 0.0 0.0 0.0 xyz
      dof rx ry rz
   end
:hierarchy
   begin
      root Spine_dum LeftUpLeg_dum RightUpLeg_dum
      Spine_dum Spine
      LeftUpLeg_dum LeftUpLeg
      RightUpLeg_dum RightUpLeg
      Spine Spine_dum1 Spine_dum2 Spine_dum3
      Spine_dum1 Head
      Spine_dum2 LeftShoulder
      Spine_dum3 RightShoulder
      LeftShoulder LeftArm
      LeftArm LeftForeArm
      LeftForeArm LeftHand
      LeftHand LeftHand_dum1 LeftHand_dum2
      LeftHand_dum1 LeftHandThumb1
      RightShoulder RightArm
      RightArm RightForeArm
      RightForeArm RightHand
      RightHand RightHand_dum1 RightHand_dum2
      RightHand_dum1 RightHandThumb1
      LeftUpLeg LeftLeg
      LeftLeg LeftFoot
      LeftFoot LeftToeBase
      RightUpLeg RightLeg
      RightLeg RightFoot
      RightFoot RightToeBase
   end

# File created by Blade
# Date/Time:  Wed Apr 08 17:04:22 2015
# Frame Rate: 120.000 fps
#------------------------------------------------------
:FULLY-SPECIFIED
:DEGREES
751
root 3.428495 35.916159 4.174038 -146.455510 -77.942444 173.498291
Spine -27.594988 -14.218615 -2.164134
Head 56.637419 -18.525919 -15.196349
LeftShoulder 17.169688 -4.592004 31.251448
LeftArm 105.754325 41.289752 -38.802282
LeftForeArm 3.124775 0.000000 92.013934
LeftHand -8.230985 -0.000000 -21.529841
LeftHandThumb1 -26.253704 0.000000 33.147579
RightShoulder -19.567063 -69.245754 -9.885249
RightArm 44.814816 0.822163 76.135371
RightForeArm 69.751077 0.000000 103.435315
RightHand 10.750466 0.000000 7.846440
RightHandThumb1 -24.326973 -0.000000 -32.862282
LeftUpLeg -29.647428 12.166068 -4.712093
LeftLeg 18.783011 -0.000000 -0.000000
LeftFoot -18.302068 11.564625 -15.506775
LeftToeBase 8.958196 -0.000000 -0.000000
RightUpLeg -33.452207 -3.761900 -10.870093
RightLeg 16.825837 -0.000000 -0.000000
RightFoot -10.715364 3.616939 19.891678
RightToeBase 13.035283 -0.000000 -0.000000
752
root 3.425563 35.917027 4.173751 -146.485780 -77.957680 173.519192
Spine -27.570660 -14.183148 -2.213883
Head 56.651766 -18.684638 -15.160496
LeftShoulder 17.184764 -4.637974 31.283676
LeftArm 105.691285 41.254684 -38.903532
LeftForeArm 2.886141 -0.000000 92.000080
LeftHand -8.236839 -0.000000 -21.631915
LeftHandThumb1 -26.253704 0.000000 33.147579
RightShoulder -19.628465 -69.147938 -9.803019
RightArm 44.766382 1.344031 76.395590
RightForeArm 69.577355 -0.000000 102.780805
RightHand 11.132485 -0.000000 6.757840
RightHandThumb1 -24.326973 -0.000000 -32.862282
LeftUpLeg -29.628304 12.155972 -4.697658
LeftLeg 18.773079 -0.000000 -0.000000
LeftFoot -18.300319 11.566113 -15.520427
LeftToeBase 8.941961 -0.000000 -0.000000
RightUpLeg -33.427657 -3.774325 -10.857098
RightLeg 16.809291 -0.000000 -0.000000
RightFoot -10.706529 3.610722 19.898772
RightToeBase 13.022722 -0.000000 -0.000000
753
root 3.422014 35.918709 4.173144 -146.501489 -77.981453 173.535068
Spine -27.567461 -14.162230 -2.250767
Head 56.674341 -18.824390 -15.148970
LeftShoulder 17.221057 -4.659587 31.285966
LeftArm 105.679931 41.190443 -38.922875
LeftForeArm 2.896713 0.000000 92.016502
LeftHand -8.352187 -0.000000 -21.549676
LeftHandThumb1 -26.253704 0.000000 33.147579
RightShoulder -19.711341 -69.128232 -9.681904
RightArm 44.760865 1.878486 76.608528
RightForeArm 69.619513 0.000000 102.184393
RightHand 11.509650 -0.000000 5.418588
RightHandThumb1 -24.326973 -0.000000 -32.862282
LeftUpLeg -29.618305 12.158067 -4.690728
LeftLeg 18.757661 -0.000000 -0.000000
LeftFoot -18.276168 11.551080 -15.495625
LeftToeBase 8.962873 -0.000000 -0.000000
RightUpLeg -33.410674 -3.812255 -10.833709
RightLeg 16.795585 -0.000000 -0.000000
RightFoot -10.678165 3.631968 19.898583
RightToeBase 13.005465 -0.000000 -0.000000
754
root 3.418748 35.920361 4.173486 -146.521739 -77.995355 173.563410
Spine -27.578767 -14.125760 -2.284821
Head 56.704047 -18.942716 -15.154063
LeftShoulder 17.273498 -4.662233 31.276275
LeftArm 105.683597 41.117018 -38.930345
LeftForeArm 2.977876 -0.000000 92.042876
LeftHand -8.412155 -0.000000 -21.471034
LeftHandThumb1 -26.253704 0.000000 33.147579
RightShoulder -19.737960 -69.096553 -9.621376
RightArm 44.678316 2.460581 76.849887
RightForeArm 69.778683 -0.000000 101.561421
RightHand 11.866101 -0.000000 4.293777
RightHandThumb1 -24.326973 -0.000000 -32.862282
LeftUpLeg -29.613948 12.160200 -4.687237
LeftLeg 18.737664 -0.000000 -0.000000
LeftFoot -18.264597 11.568435 -15.470881
LeftToeBase 8.940066 -0.000000 -0.000000
RightUpLeg -33.400314 -3.841362 -10.811689
RightLeg 16.777659 -0.000000 -0.000000
RightFoot -10.657220 3.645177 19.902408
RightToeBase 12.979104 -0.000000 -0.000000
755
root 3.414808 35.922585 4.173729 -146.527545 -78.006722 173.584843
Spine -27.587671 -14.109006 -2.303917
Head 56.701030 -19.012885 -15.167335
LeftShoulder 17.266103 -4.712137 31.263868
LeftArm 105.669355 41.151983 -38.959458
LeftForeArm 3.110846 0.000000 92.044451
LeftHand -8.327336 -0.000000 -21.314262
LeftHandThumb1 -26.253704 0.000000 33.147579
RightShoulder -19.701926 -69.029765 -9.610519
RightArm 44.527415 3.093050 77.101552
RightForeArm 69.763142 0.000000 100.949659
RightHand 12.138563 -0.000000 2.907071
RightHandThumb1 -24.326973 -0.000000 -32.862282
LeftUpLeg -29.611464 12.161794 -4.686719
LeftLeg 18.711437 -0.000000 -0.000000
LeftFoot -18.257345 11.571929 -15.464464
LeftToeBase 8.962321 -0.000000 -0.000000
RightUpLeg -33.393826 -3.873780 -10.788868
RightLeg 16.747420 -0.000000 -0.000000
RightFoot -10.633113 3.643723 19.872476
RightToeBase 12.964850 -0.000000 -0.000000
756
root 3.413465 35.925409 4.175319 -146.462657 -78.031693 173.598987
Spine -27.677966 -14.128120 -2.266616
Head 56.676528 -19.007969 -15.219595
LeftShoulder 17.237487 -4.736463 31.262555
LeftArm 105.640207 41.214955 -39.035019
LeftForeArm 3.199883 -0.000000 92.067788
LeftHand -8.284295 0.000000 -21.216999
LeftHandThumb1 -26.253704 0.000000 33.147579
RightShoulder -19.681041 -68.978546 -9.634195
RightArm 44.404526 3.667391 77.342905
RightForeArm 69.676268 -0.000000 100.343598
RightHand 12.392192 -0.000000 1.203350
RightHandThumb1 -24.326973 -0.000000 -32.862282
LeftUpLeg -29.685702 12.143608 -4.694768
LeftLeg 18.696364 -0.000000 -0.000000
LeftFoot -18.242124 11.569876 -15.470339
LeftToeBase 8.963888 -0.000000 -0.000000
RightUpLeg -33.449908 -3.913556 -10.765445
RightLeg 16.720777 -0.000000 -0.000000
RightFoot -10.608261 3.635386 19.869827
RightToeBase 12.972791 -0.000000 -0.000000
757
root 3.410422 35.927148 4.175952 -146.481991 -78.051079 173.649812
Spine -27.719786 -14.137472 -2.241279
Head 56.676587 -18.972819 -15.274960
LeftShoulder 17.245409 -4.753403 31.263961
LeftArm 105.592224 41.261203 -39.106222
LeftForeArm 3.297058 -0.000000 92.111571
LeftHand -8.291353 -0.000000 -21.054606
LeftHandThumb1 -26.253704 0.000000 33.147579
RightShoulder -19.584902 -68.912685 -9.727628
RightArm 44.250615 4.261641 77.608922
RightForeArm 69.807168 0.000000 99.721373
RightHand 12.588225 -0.000000 -0.479750
RightHandThumb1 -24.326973 -0.000000 -32.862282
LeftUpLeg -29.708743 12.152979 -4.694078
LeftLeg 18.682834 -0.000000 -0.000000
LeftFoot -18.231884 11.556696 -15.468029
LeftToeBase 8.977287 -0.000000 -0.000000
RightUpLeg -33.452503 -3.917530 -10.750271
RightLeg 16.683683 -0.000000 -0.000000
RightFoot -10.592046 3.610878 19.867279
RightToeBase 12.975430 -0.000000 -0.000000
758
root 3.406211 35.928449 4.176212 -146.496830 -78.066510 173.679094
Spine -27.744619 -14.153979 -2.222795
Head 56.676904 -18.913931 -15.335073
LeftShoulder 17.231289 -4.740777 31.246050
LeftArm 105.591155 41.286188 -39.121363
LeftForeArm 3.338064 0.000000 92.144999
LeftHand -8.325323 -0.000000 -20.862714
LeftHandThumb1 -26.253704 0.000000 33.147579
RightShoulder -19.487988 -68.854186 -9.848252
RightArm 44.122451 4.834539 77.943921
RightForeArm 70.227853 -0.000000 99.036043
RightHand 12.807878 -0.000000 -2.141718
RightHandThumb1 -24.326973 -0.000000 -32.862282
LeftUpLeg -29.711403 12.151794 -4.684766
LeftLeg 18.671888 -0.000000 -0.000000
LeftFoot -18.224429 11.536790 -15.469505
LeftToeBase 8.950287 -0.000000 -0.000000
RightUpLeg -33.436340 -3.907818 -10.745015
RightLeg 16.647068 -0.000000 -0.000000
RightFoot -10.595868 3.576517 19.873731
RightToeBase 13.002000 -0.000000 -0.000000
759
root 3.403171 35.929099 4.176248 -146.510915 -78.096165 173.713372
Spine -27.776299 -14.205764 -2.178095
Head 56.662137 -18.807757 -15.395518
LeftShoulder 17.199726 -4.746856 31.233584
LeftArm 105.541561 41.343851 -39.181779
LeftForeArm 3.360631 -0.000000 92.189184
LeftHand -8.373466 -0.000000 -20.729553
LeftHandThumb1 -26.253704 0.000000 33.147579
RightShoulder -19.387258 -68.778114 -9.978666
RightArm 44.028787 5.362378 78.204862
RightForeArm 70.401208 -0.000000 98.393224
RightHand 13.148477 0.000000 -4.476706
RightHandThumb1 -24.326973 -0.000000 -32.862282
LeftUpLeg -29.726691 12.137040 -4.668154
LeftLeg 18.669746 -0.000000 -0.000000
LeftFoot -18.224689 11.530038 -15.475796
LeftToeBase 8.982999 -0.000000 -0.000000
RightUpLeg -33.425209 -3.874284 -10.749483
RightLeg 16.615603 -0.000000 -0.000000
RightFoot -10.603774 3.529256 19.900742
RightToeBase 13.003081 -0.000000 -0.000000
760
root 3.400187 35.929035 4.176168 -146.488275 -78.119860 173.714931
Spine -27.809944 -14.264059 -2.134945
Head 56.642072 -18.700799 -15.461183
LeftShoulder 17.154878 -4.730245 31.204326
LeftArm 105.530659 41.376117 -39.191178
LeftForeArm 3.385977 -0.000000 92.232112
LeftHand -8.413115 -0.000000 -20.579661
LeftHandThumb1 -26.253704 0.000000 33.147579
RightShoulder -19.177870 -68.690580 -10.252179
RightArm 43.882433 5.996870 78.746734
RightForeArm 71.163389 -0.000000 97.598139
RightHand 13.228084 -0.000000 -5.513493
RightHandThumb1 -24.326973 -0.000000 -32.862282
LeftUpLeg -29.751381 12.130917 -4.662995
LeftLeg 18.675324 -0.000000 -0.000000
LeftFoot -18.219335 11.503949 -15.473529
LeftToeBase 8.949516 -0.000000 -0.000000
RightUpLeg -33.423796 -3.851159 -10.756884
RightLeg 16.592743 -0.000000 -0.000000
RightFoot -10.623432 3.481261 19.913146
RightToeBase 13.011218 -0.000000 -0.000000
761
root 3.397486 35.928726 4.176174 -146.444218 -78.129660 173.685157
Spine -27.826793 -14.285818 -2.138002
Head 56.630940 -18.634061 -15.490551
LeftShoulder 17.146282 -4.696376 31.190701
LeftArm 105.532494 41.377061 -39.189555
LeftForeArm 3.381942 -0.000000 92.273332
LeftHand -8.405480 -0.000000 -20.495730
LeftHandThumb1 -26.253704 0.000000 33.147579
RightShoulder -19.095629 -68.590937 -10.376123
RightArm 43.732618 6.633367 79.177391
RightForeArm 71.581351 -0.000000 96.884592
RightHand 13.478721 0.000000 -7.076708
RightHandThumb1 -24.326973 -0.000000 -32.862282
LeftUpLeg -29.766194 12.133726 -4.669718
LeftLeg 18.683811 -0.000000 -0.000000
LeftFoot -18.215537 11.479375 -15.472154
LeftToeBase 8.959819 -0.000000 -0.000000
RightUpLeg -33.417898 -3.808438 -10.784345
RightLeg 16.574366 -0.000000 -0.000000
RightFoot -10.648493 3.433195 19.940738
RightToeBase 12.987033 -0.000000 -0.000000
